<?xml version="1.0" encoding="UTF-8" standalone="no"?>
<!-- Created with Inkscape (http://www.inkscape.org/) -->
<svg xmlns:dc="http://purl.org/dc/elements/1.1/" xmlns:cc="http://creativecommons.org/ns#" xmlns:rdf="http://www.w3.org/1999/02/22-rdf-syntax-ns#" xmlns:svg="http://www.w3.org/2000/svg" xmlns="http://www.w3.org/2000/svg" xmlns:sodipodi="http://sodipodi.sourceforge.net/DTD/sodipodi-0.dtd" xmlns:inkscape="http://www.inkscape.org/namespaces/inkscape" width="60.588158mm" height="13.013945mm" viewBox="0 0 60.588158 13.013945" version="1.1" id="svg896" inkscape:version="0.92.3 (2405546, 2018-03-11)" sodipodi:docname="NFDI_SemLookP_Logo.svg">
  <defs id="defs890"/>
  <sodipodi:namedview id="base" pagecolor="#ffffff" bordercolor="#666666" borderopacity="1.0" inkscape:pageopacity="0.0" inkscape:pageshadow="2" inkscape:zoom="3.959798" inkscape:cx="143.27538" inkscape:cy="59.995914" inkscape:document-units="mm" inkscape:current-layer="layer1" showgrid="false" fit-margin-top="0" fit-margin-right="0" fit-margin-left="0" fit-margin-bottom="0" inkscape:window-width="1869" inkscape:window-height="1025" inkscape:window-x="51" inkscape:window-y="27" inkscape:window-maximized="1" showguides="true" inkscape:guide-bbox="true"/>
  <metadata id="metadata893">
    <rdf:RDF>
      <cc:Work rdf:about="">
        <dc:format>image/svg+xml</dc:format>
        <dc:type rdf:resource="http://purl.org/dc/dcmitype/StillImage"/>
        <dc:title/>
      </cc:Work>
    </rdf:RDF>
  </metadata>
  <g inkscape:label="Ebene 1" inkscape:groupmode="layer" id="layer1" transform="translate(-64.465415,-80.922167)">
    <g transform="matrix(0.01018058,0,0,-0.01018058,-2.4323953,258.25484)" id="g26">
      <flowRoot xml:space="preserve" id="flowRoot5143" style="font-style:normal;font-weight:normal;font-size:40px;line-height:1.25;font-family:sans-serif;letter-spacing:0.87px;word-spacing:0px;fill:#000000;fill-opacity:1;stroke:none" transform="matrix(25.989024,0,0,-25.989024,7573.0428,17679.753)"><flowRegion id="flowRegion5145"><rect id="rect5147" width="5.0507627" height="65.154839" x="156.82619" y="97.883186"/></flowRegion><flowPara id="flowPara5149"/></flowRoot>    </g>
    <text xml:space="preserve" style="font-style:normal;font-weight:normal;font-size:10.58333302px;line-height:1.25;font-family:sans-serif;letter-spacing:0.23018751px;word-spacing:0px;fill:#000000;fill-opacity:1;stroke:none;stroke-width:0.26458332" x="88.830856" y="96.712814" id="text5141"><tspan sodipodi:role="line" id="tspan5139" x="88.830856" y="106.07658" style="font-style:normal;font-variant:normal;font-weight:300;font-stretch:normal;font-size:3.52777791px;font-family:'Tablet Gothic Narrow';-inkscape-font-specification:'Tablet Gothic Narrow Light';letter-spacing:0px;stroke-width:0.26458332"/></text>
    <g id="g946">
      <g id="flowRoot818" style="font-style:normal;font-weight:normal;font-size:38.66666794px;line-height:1.25;font-family:sans-serif;letter-spacing:0px;word-spacing:0px;fill:#9c9a9b;fill-opacity:1;stroke:none" transform="matrix(0.26458333,0,0,0.26458333,74.143817,80.756632)" aria-label="SEMLOOKP">
        <path inkscape:connector-curvature="0" id="path5161" style="font-style:normal;font-variant:normal;font-weight:300;font-stretch:normal;font-size:38.66666794px;line-height:1.25;font-family:'Tablet Gothic Narrow';-inkscape-font-specification:'Tablet Gothic Narrow Light';letter-spacing:-0.46000001px;fill:#9c9a9b;fill-opacity:1" d="m 38.179933,20.190209 -2.590667,0.309333 q -0.193333,-3.325333 -1.546667,-5.026667 -1.314666,-1.701333 -4.098666,-1.701333 -2.590667,0 -3.982667,1.353333 -1.392,1.314667 -1.392,3.750667 0,2.281333 1.198666,3.402667 1.237334,1.121333 3.634667,1.856 0.386667,0.116 1.353334,0.386667 0.966666,0.270666 1.430666,0.425333 0.464,0.154667 1.314667,0.502667 0.889333,0.309333 1.353333,0.618666 0.464,0.270667 1.121334,0.734667 0.696,0.425333 1.044,1.005333 0.386667,0.541334 0.773333,1.237334 0.386667,0.696 0.541334,1.585333 0.154666,0.889334 0.154666,1.933334 0,3.750666 -2.397333,5.993333 -2.397334,2.204 -6.341334,2.204 -4.292,0 -6.496,-2.088 -2.165333,-2.088 -2.436,-6.728 l 2.668,-0.386667 q 0.270667,3.596 1.624,5.22 1.353334,1.585334 4.717334,1.585334 2.9,0 4.369333,-1.469334 1.469333,-1.508 1.469333,-4.098666 0,-2.552001 -1.392,-3.750667 -1.392,-1.237334 -3.944,-1.972 -3.712,-1.044 -4.794667,-1.585334 -3.712,-1.933333 -3.750666,-6.418667 0,-3.596 2.281333,-5.645333 2.32,-2.049333 5.993334,-2.049333 3.866666,0 5.916,2.32 2.049333,2.32 2.204,6.496 z"/>
        <path inkscape:connector-curvature="0" id="path5163" style="font-style:normal;font-variant:normal;font-weight:300;font-stretch:normal;font-size:38.66666794px;line-height:1.25;font-family:'Tablet Gothic Narrow';-inkscape-font-specification:'Tablet Gothic Narrow Light';letter-spacing:-0.46000001px;fill:#9c9a9b;fill-opacity:1" d="m 55.635892,24.559542 v 2.242667 h -9.937334 v 11.252 h 12.064001 v 2.242667 H 42.914558 V 11.915542 h 13.920001 v 2.242667 H 45.698558 v 10.401333 z"/>
        <path inkscape:connector-curvature="0" id="path5165" style="font-style:normal;font-variant:normal;font-weight:300;font-stretch:normal;font-size:38.66666794px;line-height:1.25;font-family:'Tablet Gothic Narrow';-inkscape-font-specification:'Tablet Gothic Narrow Light';letter-spacing:-0.46000001px;fill:#9c9a9b;fill-opacity:1" d="M 75.157497,40.296876 H 72.528164 L 64.872163,15.240875 h -0.116 v 25.056001 h -2.552 V 11.915542 h 4.253334 l 7.385333,25.017334 h 0.116 l 7.424001,-25.017334 h 4.098666 v 28.381334 h -2.552 V 15.279542 h -0.116 z"/>
        <path inkscape:connector-curvature="0" id="path5167" style="font-style:normal;font-variant:normal;font-weight:300;font-stretch:normal;font-family:'Tablet Gothic Narrow';-inkscape-font-specification:'Tablet Gothic Narrow Light';fill:#41434a;fill-opacity:1" d="m 94.395748,11.915542 v 26.138667 h 10.904002 v 2.242667 H 91.650414 V 11.915542 Z"/>
        <path inkscape:connector-curvature="0" id="path5169" style="font-style:normal;font-variant:normal;font-weight:300;font-stretch:normal;font-family:'Tablet Gothic Narrow';-inkscape-font-specification:'Tablet Gothic Narrow Light';fill:#41434a;fill-opacity:1" d="m 116.31348,40.760876 q -5.06534,0 -7.424,-3.634667 -2.32,-3.673333 -2.32,-10.981333 0,-7.114667 2.668,-10.904001 2.70666,-3.828 7.772,-3.828 4.872,0 7.076,3.596 2.24267,3.596 2.24267,10.594667 0,7.540001 -2.43601,11.368001 -2.39733,3.789333 -7.57866,3.789333 z m 0.232,-2.358667 q 3.78933,0 5.37466,-3.170666 1.58534,-3.170667 1.58534,-9.357334 0,-5.954667 -1.508,-9.009334 -1.508,-3.054666 -5.104,-3.054666 -7.46267,0 -7.46267,12.218667 0,6.070667 1.624,9.241333 1.624,3.132 5.49067,3.132 z"/>
        <path inkscape:connector-curvature="0" id="path5171" style="font-style:normal;font-variant:normal;font-weight:300;font-stretch:normal;font-family:'Tablet Gothic Narrow';-inkscape-font-specification:'Tablet Gothic Narrow Light';fill:#41434a;fill-opacity:1" d="m 139.94462,40.760876 q -5.06533,0 -7.424,-3.634667 -2.32,-3.673333 -2.32,-10.981333 0,-7.114667 2.668,-10.904001 2.70667,-3.828 7.772,-3.828 4.872,0 7.076,3.596 2.24267,3.596 2.24267,10.594667 0,7.540001 -2.436,11.368001 -2.39734,3.789333 -7.57867,3.789333 z m 0.232,-2.358667 q 3.78933,0 5.37467,-3.170666 1.58533,-3.170667 1.58533,-9.357334 0,-5.954667 -1.508,-9.009334 -1.508,-3.054666 -5.104,-3.054666 -7.46267,0 -7.46267,12.218667 0,6.070667 1.624,9.241333 1.624,3.132 5.49067,3.132 z"/>
        <path inkscape:connector-curvature="0" id="path5173" style="font-style:normal;font-variant:normal;font-weight:300;font-stretch:normal;font-family:'Tablet Gothic Narrow';-inkscape-font-specification:'Tablet Gothic Narrow Light';fill:#41434a;fill-opacity:1" d="m 157.73711,11.915542 v 14.268 l 11.56133,-14.268 h 3.016 l -9.744,11.948 10.208,16.433334 h -3.016 l -8.97066,-14.229334 -3.05467,3.750667 v 10.478667 h -2.74533 V 11.915542 Z"/>
        <path inkscape:connector-curvature="0" id="path5175" style="font-style:normal;font-variant:normal;font-weight:300;font-stretch:normal;font-size:38.66666794px;line-height:1.25;font-family:'Tablet Gothic Narrow';-inkscape-font-specification:'Tablet Gothic Narrow Light';letter-spacing:-0.46000001px;fill:#9c9a9b;fill-opacity:1" d="m 178.64949,29.354209 v 10.942667 h -2.74533 V 11.915542 h 7.888 q 8.62267,0 8.62267,8.042667 0,1.856 -0.464,3.402667 -0.42534,1.508 -1.46934,2.938666 -1.044,1.430667 -3.132,2.242667 -2.088,0.812 -5.06533,0.812 z m 0,-2.281333 h 3.51867 q 3.828,0 5.568,-1.701334 1.77867,-1.74 1.77867,-5.374667 0,-3.016 -1.508,-4.408 -1.508,-1.430666 -4.872,-1.430666 h -4.48534 z"/>
      </g>
      <g transform="matrix(0.45823749,0,0,0.45823749,64.465415,80.005692)" id="g865">
        <path style="fill:#b3cae4" inkscape:connector-curvature="0" class="st0" d="M 23.6,24.2 C 20.4,24.2 17.4,22.3 16,19.1 13,12.2 11.3,2.7 11.2,2.3 L 12.8,2 c 0,0.1 1.8,9.7 4.7,16.4 1.3,3.1 4.5,4.7 7.7,3.9 l 0.6,-0.1 c 1.8,-0.4 3.1,-0.8 6.2,-0.8 V 23 c -2.9,0 -4,0.3 -5.8,0.7 L 25.6,24 c -0.7,0.1 -1.4,0.2 -2,0.2 z" id="path833"/>
        <path style="fill:#83c2e9" inkscape:connector-curvature="0" class="st1" d="M 30,14.3 C 27.6,14.3 24.5,14 20.2,11.6 15.5,9.6 11.7,9.2 8.6,8.8 h -1 L 7.8,7.2 8.7,7.3 c 3.2,0.3 7.2,0.8 12.1,2.9 h 0.1 c 4.6,2.6 7.6,2.5 10.1,2.5 0.3,0 0.6,0 0.9,0 v 1.6 c -0.3,0 -0.6,0 -0.9,0 -0.3,0 -0.6,0 -1,0 z" id="path835"/>
        <path style="fill:#0067a2" inkscape:connector-curvature="0" class="st2" d="M 8.4,29.2 7.7,27.7 c 0.5,-0.2 0.9,-0.4 1.4,-0.7 2.2,-1 4.7,-2.2 7.1,-4.7 1.9,-1.9 3.2,-4.2 4.4,-6.4 2.3,-4 4.4,-7.7 9.4,-7.7 h 2 v 1.6 h -2 c -4.1,0 -5.8,3 -8,6.9 -1.2,2.2 -2.6,4.7 -4.7,6.7 -2.7,2.7 -5.3,3.9 -7.6,5 -0.5,0.4 -0.9,0.6 -1.3,0.8 z" id="path837"/>
        <path style="fill:#bbd7e8" inkscape:connector-curvature="0" class="st3" d="M 8.9,23.7 7.5,22.8 c 5.1,-7.9 10.2,-7.2 16.7,-6.4 2.3,0.3 4.9,0.6 7.8,0.6 v 1.6 C 29,18.6 26.4,18.3 24,18 17.6,17.2 13.3,16.7 8.9,23.7 Z" id="path839"/>
        <path style="fill:#5f9bc7" inkscape:connector-curvature="0" class="st4" d="M 18.4,21.4 C 15.2,21.4 11.4,19.8 0,11.1 L 1,9.8 c 13.9,10.5 15.9,10.2 19.2,9.8 4.2,-0.6 6,-0.5 8.5,-0.4 0.9,0 2,0.1 3.2,0.1 v 1.6 c -1.3,0 -2.4,0 -3.3,-0.1 -2.4,-0.1 -4.2,-0.1 -8.2,0.4 -0.6,0.2 -1.3,0.2 -2,0.2 z" id="path841"/>
        <path style="fill:#2daade" inkscape:connector-curvature="0" class="st5" d="m 22.8,26.7 v 0 C 20.7,26.7 18,25.9 14.7,24.3 11.9,22.9 9.3,21.4 6.8,19.6 l 0.9,-1.3 c 7.2,5 12.5,6.8 15.1,6.8 v 0 c 1.8,0 3,-0.3 4.3,-0.7 1.3,-0.4 2.7,-0.8 4.9,-0.8 v 1.6 c -1.9,0 -3.2,0.3 -4.5,0.7 -1.3,0.4 -2.7,0.8 -4.7,0.8 z" id="path843"/>
        <path style="fill:#008acd" inkscape:connector-curvature="0" class="st6" d="M 12.1,30.4 10.5,30 C 13,18.8 15.6,11.5 20.8,9.7 c 2.4,-0.8 3.6,-0.5 5.2,0 1.3,0.4 2.9,0.8 6,0.8 v 1.6 c -3.3,0 -5.1,-0.5 -6.4,-0.9 -1.5,-0.4 -2.3,-0.6 -4.2,0 -4.6,1.6 -7,8.8 -9.3,19.2 z" id="path845"/>
        <path style="fill:#8ab2d5" inkscape:connector-curvature="0" class="st7" d="m 32,16.5 c -4.3,0 -6.3,-0.4 -8.4,-0.9 -0.8,-0.2 -1.6,-0.3 -2.5,-0.5 -3.6,-0.6 -6.6,-0.5 -9.2,-0.5 -0.7,0 -1.4,0 -2.1,0 V 13 c 0.7,0 1.4,0 2.1,0 2.7,-0.1 5.7,-0.1 9.5,0.5 1,0.2 1.8,0.3 2.6,0.5 2,0.4 3.9,0.8 8,0.8 z" id="path847"/>
      </g>
    </g>
  </g>
  <style id="style831" type="text/css">
	.st0{fill:#B3CAE4;}
	.st1{fill:#83C2E9;}
	.st2{fill:#0067A2;}
	.st3{fill:#BBD7E8;}
	.st4{fill:#5F9BC7;}
	.st5{fill:#2DAADE;}
	.st6{fill:#008ACD;}
	.st7{fill:#8AB2D5;}
</style>
</svg>